<mxfile host="app.diagrams.net" modified="2021-05-18T10:38:12.979Z" agent="5.0 (Windows NT 10.0; Win64; x64) AppleWebKit/537.36 (KHTML, like Gecko) Chrome/90.0.4430.212 Safari/537.36 Edg/90.0.818.62" etag="dNPE-sCtBrIEcwnINrmz" version="14.6.0" type="gitlab">
  <diagram id="YnhViaOy70a9gDw9ipRo" name="Page-1">
    <mxGraphModel dx="1414" dy="883" grid="1" gridSize="10" guides="1" tooltips="1" connect="1" arrows="1" fold="1" page="1" pageScale="1" pageWidth="827" pageHeight="1169" math="0" shadow="0">
      <root>
        <mxCell id="0" />
        <mxCell id="1" parent="0" />
        <mxCell id="imNFoqBUXam9y-mzrash-11" value="" style="whiteSpace=wrap;html=1;aspect=fixed;" vertex="1" parent="1">
          <mxGeometry x="147.5" y="50" width="752.5" height="752.5" as="geometry" />
        </mxCell>
        <mxCell id="imNFoqBUXam9y-mzrash-1" value="Créer un fichier/dossier" style="ellipse;whiteSpace=wrap;html=1;" vertex="1" parent="1">
          <mxGeometry x="260" y="50" width="140" height="70" as="geometry" />
        </mxCell>
        <mxCell id="imNFoqBUXam9y-mzrash-2" value="Téléverser un fichier/dossier" style="ellipse;whiteSpace=wrap;html=1;" vertex="1" parent="1">
          <mxGeometry x="414" y="60" width="140" height="70" as="geometry" />
        </mxCell>
        <mxCell id="imNFoqBUXam9y-mzrash-3" value="Supprimer un utilisateur" style="ellipse;whiteSpace=wrap;html=1;" vertex="1" parent="1">
          <mxGeometry x="170" y="683" width="140" height="70" as="geometry" />
        </mxCell>
        <mxCell id="imNFoqBUXam9y-mzrash-4" value="Supprimer droit d’accès" style="ellipse;whiteSpace=wrap;html=1;" vertex="1" parent="1">
          <mxGeometry x="274" y="433" width="140" height="70" as="geometry" />
        </mxCell>
        <mxCell id="imNFoqBUXam9y-mzrash-5" value="Télécharger un fichier/dossier" style="ellipse;whiteSpace=wrap;html=1;" vertex="1" parent="1">
          <mxGeometry x="190" y="110" width="140" height="70" as="geometry" />
        </mxCell>
        <mxCell id="imNFoqBUXam9y-mzrash-6" value="Ajouter droit d’accès" style="ellipse;whiteSpace=wrap;html=1;" vertex="1" parent="1">
          <mxGeometry x="240" y="589" width="140" height="70" as="geometry" />
        </mxCell>
        <mxCell id="imNFoqBUXam9y-mzrash-7" value="Supprimer un fichier/dossier" style="ellipse;whiteSpace=wrap;html=1;" vertex="1" parent="1">
          <mxGeometry x="280" y="200" width="140" height="70" as="geometry" />
        </mxCell>
        <mxCell id="imNFoqBUXam9y-mzrash-8" value="Modifier un utilisateur" style="ellipse;whiteSpace=wrap;html=1;" vertex="1" parent="1">
          <mxGeometry x="340" y="688" width="140" height="70" as="geometry" />
        </mxCell>
        <mxCell id="imNFoqBUXam9y-mzrash-9" value="Ajouter un utilisateur" style="ellipse;whiteSpace=wrap;html=1;" vertex="1" parent="1">
          <mxGeometry x="170" y="513" width="140" height="70" as="geometry" />
        </mxCell>
        <mxCell id="imNFoqBUXam9y-mzrash-10" value="Modifier un fichier/dossier" style="ellipse;whiteSpace=wrap;html=1;" vertex="1" parent="1">
          <mxGeometry x="430" y="150" width="140" height="70" as="geometry" />
        </mxCell>
        <mxCell id="imNFoqBUXam9y-mzrash-14" value="User" style="shape=umlActor;verticalLabelPosition=bottom;verticalAlign=top;html=1;" vertex="1" parent="1">
          <mxGeometry x="60" y="80" width="30" height="60" as="geometry" />
        </mxCell>
        <mxCell id="imNFoqBUXam9y-mzrash-15" value="Admin" style="shape=umlActor;verticalLabelPosition=bottom;verticalAlign=top;html=1;" vertex="1" parent="1">
          <mxGeometry x="60" y="613" width="30" height="60" as="geometry" />
        </mxCell>
        <mxCell id="imNFoqBUXam9y-mzrash-18" value="Extends" style="endArrow=block;endSize=16;endFill=0;html=1;exitX=0.5;exitY=0;exitDx=0;exitDy=0;exitPerimeter=0;" edge="1" parent="1" source="imNFoqBUXam9y-mzrash-15">
          <mxGeometry width="160" relative="1" as="geometry">
            <mxPoint x="50" y="380" as="sourcePoint" />
            <mxPoint x="75" y="160" as="targetPoint" />
          </mxGeometry>
        </mxCell>
        <mxCell id="imNFoqBUXam9y-mzrash-24" value="" style="endArrow=none;html=1;exitX=0.5;exitY=0.5;exitDx=0;exitDy=0;exitPerimeter=0;entryX=0;entryY=0.5;entryDx=0;entryDy=0;" edge="1" parent="1" source="imNFoqBUXam9y-mzrash-14" target="imNFoqBUXam9y-mzrash-5">
          <mxGeometry width="50" height="50" relative="1" as="geometry">
            <mxPoint x="550" y="360" as="sourcePoint" />
            <mxPoint x="600" y="310" as="targetPoint" />
          </mxGeometry>
        </mxCell>
        <mxCell id="imNFoqBUXam9y-mzrash-25" value="" style="endArrow=none;html=1;exitX=0.5;exitY=0.5;exitDx=0;exitDy=0;exitPerimeter=0;entryX=0;entryY=0.5;entryDx=0;entryDy=0;" edge="1" parent="1" source="imNFoqBUXam9y-mzrash-14" target="imNFoqBUXam9y-mzrash-1">
          <mxGeometry width="50" height="50" relative="1" as="geometry">
            <mxPoint x="85" y="119.99999999999989" as="sourcePoint" />
            <mxPoint x="354" y="134.9999999999999" as="targetPoint" />
          </mxGeometry>
        </mxCell>
        <mxCell id="imNFoqBUXam9y-mzrash-26" value="" style="endArrow=none;html=1;entryX=0;entryY=0.5;entryDx=0;entryDy=0;exitX=0.5;exitY=0.5;exitDx=0;exitDy=0;exitPerimeter=0;" edge="1" parent="1" source="imNFoqBUXam9y-mzrash-14" target="imNFoqBUXam9y-mzrash-2">
          <mxGeometry width="50" height="50" relative="1" as="geometry">
            <mxPoint x="100" y="130" as="sourcePoint" />
            <mxPoint x="200" y="175" as="targetPoint" />
            <Array as="points">
              <mxPoint x="250" y="190" />
              <mxPoint x="310" y="190" />
            </Array>
          </mxGeometry>
        </mxCell>
        <mxCell id="imNFoqBUXam9y-mzrash-27" value="" style="endArrow=none;html=1;entryX=0;entryY=0.5;entryDx=0;entryDy=0;exitX=0.5;exitY=0.5;exitDx=0;exitDy=0;exitPerimeter=0;" edge="1" parent="1" source="imNFoqBUXam9y-mzrash-14" target="imNFoqBUXam9y-mzrash-10">
          <mxGeometry width="50" height="50" relative="1" as="geometry">
            <mxPoint x="90" y="120" as="sourcePoint" />
            <mxPoint x="200" y="175" as="targetPoint" />
            <Array as="points">
              <mxPoint x="240" y="190" />
              <mxPoint x="300" y="200" />
            </Array>
          </mxGeometry>
        </mxCell>
        <mxCell id="imNFoqBUXam9y-mzrash-29" value="Modifier droit d’accès" style="ellipse;whiteSpace=wrap;html=1;" vertex="1" parent="1">
          <mxGeometry x="370" y="613" width="140" height="70" as="geometry" />
        </mxCell>
        <mxCell id="imNFoqBUXam9y-mzrash-30" value="Créer un groupe d’utilisateurs" style="ellipse;whiteSpace=wrap;html=1;" vertex="1" parent="1">
          <mxGeometry x="360" y="503" width="140" height="70" as="geometry" />
        </mxCell>
        <mxCell id="imNFoqBUXam9y-mzrash-31" value="Modifier un groupe d’tulisateurs&amp;nbsp;" style="ellipse;whiteSpace=wrap;html=1;" vertex="1" parent="1">
          <mxGeometry x="500" y="553" width="140" height="70" as="geometry" />
        </mxCell>
        <mxCell id="imNFoqBUXam9y-mzrash-32" value="Supprimer un groupe" style="ellipse;whiteSpace=wrap;html=1;" vertex="1" parent="1">
          <mxGeometry x="520" y="683" width="140" height="70" as="geometry" />
        </mxCell>
        <mxCell id="imNFoqBUXam9y-mzrash-34" value="" style="endArrow=none;html=1;exitX=0.5;exitY=0.5;exitDx=0;exitDy=0;exitPerimeter=0;entryX=0;entryY=0.5;entryDx=0;entryDy=0;" edge="1" parent="1" source="imNFoqBUXam9y-mzrash-15" target="imNFoqBUXam9y-mzrash-9">
          <mxGeometry width="50" height="50" relative="1" as="geometry">
            <mxPoint x="550" y="383" as="sourcePoint" />
            <mxPoint x="590" y="343" as="targetPoint" />
          </mxGeometry>
        </mxCell>
        <mxCell id="imNFoqBUXam9y-mzrash-35" value="" style="endArrow=none;html=1;entryX=0;entryY=0.5;entryDx=0;entryDy=0;exitX=0.5;exitY=0.5;exitDx=0;exitDy=0;exitPerimeter=0;" edge="1" parent="1" source="imNFoqBUXam9y-mzrash-15" target="imNFoqBUXam9y-mzrash-8">
          <mxGeometry width="50" height="50" relative="1" as="geometry">
            <mxPoint x="90" y="643" as="sourcePoint" />
            <mxPoint x="210" y="568" as="targetPoint" />
            <Array as="points">
              <mxPoint x="310" y="683" />
            </Array>
          </mxGeometry>
        </mxCell>
        <mxCell id="imNFoqBUXam9y-mzrash-36" value="" style="endArrow=none;html=1;entryX=0;entryY=0.5;entryDx=0;entryDy=0;exitX=0.5;exitY=0.5;exitDx=0;exitDy=0;exitPerimeter=0;" edge="1" parent="1" source="imNFoqBUXam9y-mzrash-15" target="imNFoqBUXam9y-mzrash-3">
          <mxGeometry width="50" height="50" relative="1" as="geometry">
            <mxPoint x="90" y="653" as="sourcePoint" />
            <mxPoint x="190" y="638" as="targetPoint" />
          </mxGeometry>
        </mxCell>
        <mxCell id="imNFoqBUXam9y-mzrash-37" value="" style="endArrow=none;html=1;exitX=0.5;exitY=0.5;exitDx=0;exitDy=0;exitPerimeter=0;entryX=0;entryY=0.5;entryDx=0;entryDy=0;" edge="1" parent="1" source="imNFoqBUXam9y-mzrash-14" target="imNFoqBUXam9y-mzrash-7">
          <mxGeometry width="50" height="50" relative="1" as="geometry">
            <mxPoint x="85" y="119.99999999999989" as="sourcePoint" />
            <mxPoint x="200" y="175" as="targetPoint" />
          </mxGeometry>
        </mxCell>
        <mxCell id="imNFoqBUXam9y-mzrash-38" value="" style="endArrow=none;html=1;exitX=0.5;exitY=0.5;exitDx=0;exitDy=0;exitPerimeter=0;entryX=0;entryY=0.5;entryDx=0;entryDy=0;" edge="1" parent="1" source="imNFoqBUXam9y-mzrash-15" target="imNFoqBUXam9y-mzrash-6">
          <mxGeometry width="50" height="50" relative="1" as="geometry">
            <mxPoint x="85" y="653" as="sourcePoint" />
            <mxPoint x="190" y="558" as="targetPoint" />
          </mxGeometry>
        </mxCell>
        <mxCell id="imNFoqBUXam9y-mzrash-39" value="" style="endArrow=none;html=1;exitX=0.5;exitY=0.5;exitDx=0;exitDy=0;exitPerimeter=0;entryX=0;entryY=0.5;entryDx=0;entryDy=0;" edge="1" parent="1" source="imNFoqBUXam9y-mzrash-15" target="imNFoqBUXam9y-mzrash-30">
          <mxGeometry width="50" height="50" relative="1" as="geometry">
            <mxPoint x="85" y="653" as="sourcePoint" />
            <mxPoint x="190" y="558" as="targetPoint" />
            <Array as="points">
              <mxPoint x="280" y="583" />
            </Array>
          </mxGeometry>
        </mxCell>
        <mxCell id="imNFoqBUXam9y-mzrash-40" value="" style="endArrow=none;html=1;exitX=0.5;exitY=0.5;exitDx=0;exitDy=0;exitPerimeter=0;entryX=0;entryY=0.5;entryDx=0;entryDy=0;" edge="1" parent="1" source="imNFoqBUXam9y-mzrash-15" target="imNFoqBUXam9y-mzrash-29">
          <mxGeometry width="50" height="50" relative="1" as="geometry">
            <mxPoint x="85" y="653" as="sourcePoint" />
            <mxPoint x="180" y="558" as="targetPoint" />
            <Array as="points">
              <mxPoint x="260" y="663" />
              <mxPoint x="330" y="663" />
            </Array>
          </mxGeometry>
        </mxCell>
        <mxCell id="imNFoqBUXam9y-mzrash-41" value="" style="endArrow=none;html=1;exitX=0.5;exitY=0.5;exitDx=0;exitDy=0;exitPerimeter=0;entryX=0;entryY=0.5;entryDx=0;entryDy=0;" edge="1" parent="1" source="imNFoqBUXam9y-mzrash-15" target="imNFoqBUXam9y-mzrash-4">
          <mxGeometry width="50" height="50" relative="1" as="geometry">
            <mxPoint x="85" y="653" as="sourcePoint" />
            <mxPoint x="180" y="558" as="targetPoint" />
            <Array as="points">
              <mxPoint x="120" y="493" />
            </Array>
          </mxGeometry>
        </mxCell>
        <mxCell id="imNFoqBUXam9y-mzrash-42" value="" style="endArrow=none;html=1;exitX=0.5;exitY=0.5;exitDx=0;exitDy=0;exitPerimeter=0;entryX=0;entryY=0.5;entryDx=0;entryDy=0;" edge="1" parent="1" source="imNFoqBUXam9y-mzrash-15" target="imNFoqBUXam9y-mzrash-31">
          <mxGeometry width="50" height="50" relative="1" as="geometry">
            <mxPoint x="85" y="653" as="sourcePoint" />
            <mxPoint x="520" y="518" as="targetPoint" />
            <Array as="points">
              <mxPoint x="290" y="583" />
              <mxPoint x="380" y="573" />
              <mxPoint x="450" y="588" />
            </Array>
          </mxGeometry>
        </mxCell>
        <mxCell id="imNFoqBUXam9y-mzrash-43" value="" style="endArrow=none;html=1;exitX=0.5;exitY=0.5;exitDx=0;exitDy=0;exitPerimeter=0;entryX=0;entryY=0.5;entryDx=0;entryDy=0;" edge="1" parent="1" source="imNFoqBUXam9y-mzrash-15" target="imNFoqBUXam9y-mzrash-32">
          <mxGeometry width="50" height="50" relative="1" as="geometry">
            <mxPoint x="85" y="653" as="sourcePoint" />
            <mxPoint x="580" y="623" as="targetPoint" />
            <Array as="points">
              <mxPoint x="490" y="693" />
            </Array>
          </mxGeometry>
        </mxCell>
        <mxCell id="imNFoqBUXam9y-mzrash-46" value="Créer un compte" style="ellipse;whiteSpace=wrap;html=1;" vertex="1" parent="1">
          <mxGeometry x="340" y="350" width="140" height="70" as="geometry" />
        </mxCell>
        <mxCell id="imNFoqBUXam9y-mzrash-47" value="Se connecter" style="ellipse;whiteSpace=wrap;html=1;" vertex="1" parent="1">
          <mxGeometry x="180" y="270" width="140" height="70" as="geometry" />
        </mxCell>
        <mxCell id="imNFoqBUXam9y-mzrash-48" value="&amp;lt;&amp;lt;extends&amp;gt;&amp;gt;" style="endArrow=open;endSize=12;dashed=1;html=1;exitX=0;exitY=0.5;exitDx=0;exitDy=0;entryX=1;entryY=0.5;entryDx=0;entryDy=0;" edge="1" parent="1" source="imNFoqBUXam9y-mzrash-60" target="imNFoqBUXam9y-mzrash-47">
          <mxGeometry width="160" relative="1" as="geometry">
            <mxPoint x="490" y="300" as="sourcePoint" />
            <mxPoint x="320" y="305" as="targetPoint" />
          </mxGeometry>
        </mxCell>
        <mxCell id="imNFoqBUXam9y-mzrash-60" value="gérer son compte" style="ellipse;whiteSpace=wrap;html=1;" vertex="1" parent="1">
          <mxGeometry x="430" y="270" width="140" height="70" as="geometry" />
        </mxCell>
        <mxCell id="imNFoqBUXam9y-mzrash-62" value="" style="endArrow=none;html=1;exitX=0.5;exitY=0.5;exitDx=0;exitDy=0;exitPerimeter=0;entryX=0;entryY=0.5;entryDx=0;entryDy=0;" edge="1" parent="1" source="imNFoqBUXam9y-mzrash-14" target="imNFoqBUXam9y-mzrash-47">
          <mxGeometry width="50" height="50" relative="1" as="geometry">
            <mxPoint x="390" y="260" as="sourcePoint" />
            <mxPoint x="440" y="210" as="targetPoint" />
          </mxGeometry>
        </mxCell>
        <mxCell id="imNFoqBUXam9y-mzrash-63" value="&amp;lt;&amp;lt;includes&amp;gt;&amp;gt;" style="endArrow=open;endSize=12;dashed=1;html=1;entryX=0;entryY=0.5;entryDx=0;entryDy=0;" edge="1" parent="1" source="imNFoqBUXam9y-mzrash-47" target="imNFoqBUXam9y-mzrash-46">
          <mxGeometry width="160" relative="1" as="geometry">
            <mxPoint x="340" y="230" as="sourcePoint" />
            <mxPoint x="500" y="230" as="targetPoint" />
          </mxGeometry>
        </mxCell>
      </root>
    </mxGraphModel>
  </diagram>
</mxfile>
